<svg id="SvgjsSvg1650" width="1083" height="435" xmlns="http://www.w3.org/2000/svg" version="1.1" xmlns:xlink="http://www.w3.org/1999/xlink" xmlns:svgjs="http://svgjs.com/svgjs"><defs id="SvgjsDefs1651"><marker id="SvgjsMarker1672" markerWidth="16" markerHeight="12" refX="16" refY="6" viewBox="0 0 16 12" orient="auto" markerUnits="userSpaceOnUse"><path id="SvgjsPath1673" d="M0,2 L14,6 L0,11 L0,2" fill="#ff3333" stroke="#ff3333" stroke-width="2"></path></marker><marker id="SvgjsMarker1686" markerWidth="16" markerHeight="12" refX="16" refY="6" viewBox="0 0 16 12" orient="auto" markerUnits="userSpaceOnUse"><path id="SvgjsPath1687" d="M0,2 L14,6 L0,11 L0,2" fill="#323232" stroke="#323232" stroke-width="2"></path></marker><marker id="SvgjsMarker1696" markerWidth="16" markerHeight="12" refX="16" refY="6" viewBox="0 0 16 12" orient="auto" markerUnits="userSpaceOnUse"><path id="SvgjsPath1697" d="M0,2 L14,6 L0,11 L0,2" fill="#323232" stroke="#323232" stroke-width="2"></path></marker><marker id="SvgjsMarker1704" markerWidth="16" markerHeight="12" refX="16" refY="6" viewBox="0 0 16 12" orient="auto" markerUnits="userSpaceOnUse"><path id="SvgjsPath1705" d="M0,2 L14,6 L0,11 L0,2" fill="#ff3333" stroke="#ff3333" stroke-width="2"></path></marker><marker id="SvgjsMarker1724" markerWidth="16" markerHeight="12" refX="16" refY="6" viewBox="0 0 16 12" orient="auto" markerUnits="userSpaceOnUse"><path id="SvgjsPath1725" d="M0,2 L14,6 L0,11 L0,2" fill="#323232" stroke="#323232" stroke-width="2"></path></marker><marker id="SvgjsMarker1732" markerWidth="16" markerHeight="12" refX="16" refY="6" viewBox="0 0 16 12" orient="auto" markerUnits="userSpaceOnUse"><path id="SvgjsPath1733" d="M0,2 L14,6 L0,11 L0,2" fill="#ff3333" stroke="#ff3333" stroke-width="2"></path></marker><marker id="SvgjsMarker1758" markerWidth="16" markerHeight="12" refX="16" refY="6" viewBox="0 0 16 12" orient="auto" markerUnits="userSpaceOnUse"><path id="SvgjsPath1759" d="M0,2 L14,6 L0,11 L0,2" fill="#323232" stroke="#323232" stroke-width="2"></path></marker><marker id="SvgjsMarker1762" markerWidth="16" markerHeight="12" refX="0" refY="6" viewBox="0 0 16 12" orient="auto" markerUnits="userSpaceOnUse"><path id="SvgjsPath1763" d="M15,1.5 L2,6 L15,10.5" fill="#323232" stroke="#323232" stroke-width="2"></path></marker><marker id="SvgjsMarker1766" markerWidth="16" markerHeight="12" refX="16" refY="6" viewBox="0 0 16 12" orient="auto" markerUnits="userSpaceOnUse"><path id="SvgjsPath1767" d="M0,2 L14,6 L0,11 L0,2" fill="#323232" stroke="#323232" stroke-width="2"></path></marker><marker id="SvgjsMarker1780" markerWidth="16" markerHeight="12" refX="16" refY="6" viewBox="0 0 16 12" orient="auto" markerUnits="userSpaceOnUse"><path id="SvgjsPath1781" d="M0,2 L14,6 L0,11 L0,2" fill="#323232" stroke="#323232" stroke-width="2"></path></marker><marker id="SvgjsMarker1784" markerWidth="16" markerHeight="12" refX="16" refY="6" viewBox="0 0 16 12" orient="auto" markerUnits="userSpaceOnUse"><path id="SvgjsPath1785" d="M0,2 L14,6 L0,11 L0,2" fill="#323232" stroke="#323232" stroke-width="2"></path></marker><marker id="SvgjsMarker1798" markerWidth="16" markerHeight="12" refX="16" refY="6" viewBox="0 0 16 12" orient="auto" markerUnits="userSpaceOnUse"><path id="SvgjsPath1799" d="M0,2 L14,6 L0,11 L0,2" fill="#323232" stroke="#323232" stroke-width="2"></path></marker><marker id="SvgjsMarker1808" markerWidth="16" markerHeight="12" refX="16" refY="6" viewBox="0 0 16 12" orient="auto" markerUnits="userSpaceOnUse"><path id="SvgjsPath1809" d="M0,2 L14,6 L0,11 L0,2" fill="#323232" stroke="#323232" stroke-width="2"></path></marker><marker id="SvgjsMarker1812" markerWidth="16" markerHeight="12" refX="16" refY="6" viewBox="0 0 16 12" orient="auto" markerUnits="userSpaceOnUse"><path id="SvgjsPath1813" d="M0,2 L14,6 L0,11 L0,2" fill="#323232" stroke="#323232" stroke-width="2"></path></marker><marker id="SvgjsMarker1824" markerWidth="16" markerHeight="12" refX="16" refY="6" viewBox="0 0 16 12" orient="auto" markerUnits="userSpaceOnUse"><path id="SvgjsPath1825" d="M0,2 L14,6 L0,11 L0,2" fill="#323232" stroke="#323232" stroke-width="2"></path></marker><marker id="SvgjsMarker1838" markerWidth="16" markerHeight="12" refX="16" refY="6" viewBox="0 0 16 12" orient="auto" markerUnits="userSpaceOnUse"><path id="SvgjsPath1839" d="M0,2 L14,6 L0,11 L0,2" fill="#323232" stroke="#323232" stroke-width="2"></path></marker><marker id="SvgjsMarker1842" markerWidth="16" markerHeight="12" refX="16" refY="6" viewBox="0 0 16 12" orient="auto" markerUnits="userSpaceOnUse"><path id="SvgjsPath1843" d="M0,2 L14,6 L0,11 L0,2" fill="#323232" stroke="#323232" stroke-width="2"></path></marker><marker id="SvgjsMarker1852" markerWidth="16" markerHeight="12" refX="16" refY="6" viewBox="0 0 16 12" orient="auto" markerUnits="userSpaceOnUse"><path id="SvgjsPath1853" d="M0,2 L14,6 L0,11 L0,2" fill="#323232" stroke="#323232" stroke-width="2"></path></marker><marker id="SvgjsMarker1856" markerWidth="16" markerHeight="12" refX="0" refY="6" viewBox="0 0 16 12" orient="auto" markerUnits="userSpaceOnUse"><path id="SvgjsPath1857" d="M15,1.5 L2,6 L15,10.5" fill="#323232" stroke="#323232" stroke-width="2"></path></marker><marker id="SvgjsMarker1860" markerWidth="16" markerHeight="12" refX="0" refY="6" viewBox="0 0 16 12" orient="auto" markerUnits="userSpaceOnUse"><path id="SvgjsPath1861" d="M15,1.5 L2,6 L15,10.5" fill="#ff0000" stroke="#ff0000" stroke-width="2"></path></marker></defs><g id="SvgjsG1652" transform="translate(25,167)"><path id="SvgjsPath1653" d="M 0 4Q 0 0 4 0L 99 0Q 103 0 103 4L 103 30Q 103 34 99 34L 4 34Q 0 34 0 30Z" stroke="#323232" stroke-width="2" fill-opacity="1" fill="#00ff00"></path><g id="SvgjsG1654"><text id="SvgjsText1655" font-family="微软雅黑" text-anchor="middle" font-size="15px" width="30" fill="#323232" font-weight="400" align="middle" anchor="middle" family="微软雅黑" size="15px" weight="400" font-style="" y="5.25" transform="rotate(0)"><tspan id="SvgjsTspan1656" dy="18" x="51.5"><tspan id="SvgjsTspan1657" style="text-decoration:;">标题</tspan></tspan></text></g></g><g id="SvgjsG1658" transform="translate(205,55)"><path id="SvgjsPath1659" d="M 0 17L 55.5 0L 111 17L 55.5 34L 0 17Z" stroke="#323232" stroke-width="2" fill-opacity="1" fill="#ffff33"></path><g id="SvgjsG1660"><text id="SvgjsText1661" font-family="微软雅黑" text-anchor="middle" font-size="15px" width="30" fill="#323232" font-weight="400" align="middle" anchor="middle" family="微软雅黑" size="15px" weight="400" font-style="" y="5.25" transform="rotate(0)"><tspan id="SvgjsTspan1662" dy="18" x="55.5"><tspan id="SvgjsTspan1663" style="text-decoration:;">成功</tspan></tspan></text></g></g><g id="SvgjsG1664" transform="translate(392,55)"><path id="SvgjsPath1665" d="M 0 17L 55.5 0L 111 17L 55.5 34L 0 17Z" stroke="#323232" stroke-width="2" fill-opacity="1" fill="#ffff00"></path><g id="SvgjsG1666"><text id="SvgjsText1667" font-family="微软雅黑" text-anchor="middle" font-size="15px" width="45" fill="#323232" font-weight="400" align="middle" anchor="middle" family="微软雅黑" size="15px" weight="400" font-style="" y="5.25" transform="rotate(0)"><tspan id="SvgjsTspan1668" dy="18" x="55.5"><tspan id="SvgjsTspan1669" style="text-decoration:;">引用量</tspan></tspan></text></g></g><g id="SvgjsG1670"><path id="SvgjsPath1671" d="M447.5 55L447.5 25L76.5 25L76.5 167" stroke="#ff3333" stroke-width="2" fill="none" marker-end="url(#SvgjsMarker1672)"></path><rect id="SvgjsRect1674" width="20" height="19" x="252" y="15.5" fill="#ffffff"></rect><text id="SvgjsText1675" font-family="微软雅黑" text-anchor="middle" font-size="15px" width="20" fill="#323232" font-weight="400" align="top" anchor="middle" family="微软雅黑" size="15px" weight="400" font-style="" y="13.25" transform="rotate(0)"><tspan id="SvgjsTspan1676" dy="18" x="262"><tspan id="SvgjsTspan1677" style="text-decoration:;">=0</tspan></tspan></text></g><g id="SvgjsG1678" transform="translate(388.5,167)"><path id="SvgjsPath1679" d="M 0 4Q 0 0 4 0L 114 0Q 118 0 118 4L 118 30Q 118 34 114 34L 4 34Q 0 34 0 30Z" stroke="#323232" stroke-width="2" fill-opacity="1" fill="#ffffff"></path><g id="SvgjsG1680"><text id="SvgjsText1681" font-family="微软雅黑" text-anchor="middle" font-size="15px" width="90" fill="#323232" font-weight="400" align="middle" anchor="middle" family="微软雅黑" size="15px" weight="400" font-style="" y="5.25" transform="rotate(0)"><tspan id="SvgjsTspan1682" dy="18" x="59"><tspan id="SvgjsTspan1683" style="text-decoration:;">打开引用页面</tspan></tspan></text></g></g><g id="SvgjsG1684"><path id="SvgjsPath1685" d="M447.5 201L447.5 223L447.5 223L447.5 245" stroke="#323232" stroke-width="2" fill="none" marker-end="url(#SvgjsMarker1686)"></path></g><g id="SvgjsG1688" transform="translate(392,249)"><path id="SvgjsPath1689" d="M 0 17L 55.5 0L 111 17L 55.5 34L 0 17Z" stroke="#323232" stroke-width="2" fill-opacity="1" fill="#ffff66"></path><g id="SvgjsG1690"><text id="SvgjsText1691" font-family="微软雅黑" text-anchor="middle" font-size="15px" width="30" fill="#323232" font-weight="400" align="middle" anchor="middle" family="微软雅黑" size="15px" weight="400" font-style="" y="5.25" transform="rotate(0)"><tspan id="SvgjsTspan1692" dy="18" x="55.5"><tspan id="SvgjsTspan1693" style="text-decoration:;">成功</tspan></tspan></text></g></g><g id="SvgjsG1694"><path id="SvgjsPath1695" d="M447.5 283L447.5 316L447.5 316L447.5 349" stroke="#323232" stroke-width="2" fill="none" marker-end="url(#SvgjsMarker1696)"></path><rect id="SvgjsRect1698" width="15" height="19" x="440" y="306.5" fill="#ffffff"></rect><text id="SvgjsText1699" font-family="微软雅黑" text-anchor="middle" font-size="15px" width="15" fill="#323232" font-weight="400" align="top" anchor="middle" family="微软雅黑" size="15px" weight="400" font-style="" y="304.25" transform="rotate(0)"><tspan id="SvgjsTspan1700" dy="18" x="447.5"><tspan id="SvgjsTspan1701" style="text-decoration:;">是</tspan></tspan></text></g><g id="SvgjsG1702"><path id="SvgjsPath1703" d="M392 266L76.5 266L76.5 201" stroke="#ff3333" stroke-width="2" fill="none" marker-end="url(#SvgjsMarker1704)"></path><rect id="SvgjsRect1706" width="15" height="19" x="289.84999999999997" y="257.5" fill="#ffffff"></rect><text id="SvgjsText1707" font-family="微软雅黑" text-anchor="middle" font-size="15px" width="15" fill="#323232" font-weight="400" align="top" anchor="middle" family="微软雅黑" size="15px" weight="400" font-style="" y="255.25" transform="rotate(0)"><tspan id="SvgjsTspan1708" dy="18" x="297.34999999999997"><tspan id="SvgjsTspan1709" style="text-decoration:;">否</tspan></tspan></text></g><g id="SvgjsG1710" transform="translate(372,353)"><path id="SvgjsPath1711" d="M 0 17L 75.5 0L 151 17L 75.5 34L 0 17Z" stroke="#323232" stroke-width="2" fill-opacity="1" fill="#ffff00"></path><g id="SvgjsG1712"><text id="SvgjsText1713" font-family="微软雅黑" text-anchor="middle" font-size="15px" width="80" fill="#323232" font-weight="400" align="middle" anchor="middle" family="微软雅黑" size="15px" weight="400" font-style="" y="5.25" transform="rotate(0)"><tspan id="SvgjsTspan1714" dy="18" x="75.5"><tspan id="SvgjsTspan1715" style="text-decoration:;">2018引用量</tspan></tspan></text></g></g><g id="SvgjsG1716" transform="translate(637,353)"><path id="SvgjsPath1717" d="M 0 4Q 0 0 4 0L 114 0Q 118 0 118 4L 118 30Q 118 34 114 34L 4 34Q 0 34 0 30Z" stroke="#323232" stroke-width="2" fill-opacity="1" fill="#ffffff"></path><g id="SvgjsG1718"><text id="SvgjsText1719" font-family="微软雅黑" text-anchor="middle" font-size="15px" width="90" fill="#323232" font-weight="400" align="middle" anchor="middle" family="微软雅黑" size="15px" weight="400" font-style="" y="5.25" transform="rotate(0)"><tspan id="SvgjsTspan1720" dy="18" x="59"><tspan id="SvgjsTspan1721" style="text-decoration:;">获取期刊分区</tspan></tspan></text></g></g><g id="SvgjsG1722"><path id="SvgjsPath1723" d="M523 370L580 370L580 370L637 370" stroke="#323232" stroke-width="2" fill="none" marker-end="url(#SvgjsMarker1724)"></path><rect id="SvgjsRect1726" width="20" height="19" x="548.65" y="360.5" fill="#ffffff"></rect><text id="SvgjsText1727" font-family="微软雅黑" text-anchor="middle" font-size="15px" width="20" fill="#323232" font-weight="400" align="top" anchor="middle" family="微软雅黑" size="15px" weight="400" font-style="" y="358.25" transform="rotate(0)"><tspan id="SvgjsTspan1728" dy="18" x="558.65"><tspan id="SvgjsTspan1729" style="text-decoration:;">&gt;0</tspan></tspan></text></g><g id="SvgjsG1730"><path id="SvgjsPath1731" d="M372 370L76.5 370L76.5 201" stroke="#ff3333" stroke-width="2" fill="none" marker-end="url(#SvgjsMarker1732)"></path><rect id="SvgjsRect1734" width="20" height="19" x="288.125" y="361.5" fill="#ffffff"></rect><text id="SvgjsText1735" font-family="微软雅黑" text-anchor="middle" font-size="15px" width="20" fill="#323232" font-weight="400" align="top" anchor="middle" family="微软雅黑" size="15px" weight="400" font-style="" y="359.25" transform="rotate(0)"><tspan id="SvgjsTspan1736" dy="18" x="298.125"><tspan id="SvgjsTspan1737" style="text-decoration:;">=0</tspan></tspan></text></g><g id="SvgjsG1738" transform="translate(637,55)"><path id="SvgjsPath1739" d="M 0 4Q 0 0 4 0L 114 0Q 118 0 118 4L 118 30Q 118 34 114 34L 4 34Q 0 34 0 30Z" stroke="#323232" stroke-width="2" fill-opacity="1" fill="#ffffff"></path><g id="SvgjsG1740"><text id="SvgjsText1741" font-family="微软雅黑" text-anchor="middle" font-size="15px" width="75" fill="#323232" font-weight="400" align="middle" anchor="middle" family="微软雅黑" size="15px" weight="400" font-style="" y="5.25" transform="rotate(0)"><tspan id="SvgjsTspan1742" dy="18" x="59"><tspan id="SvgjsTspan1743" style="text-decoration:;">获取详情页</tspan></tspan></text></g></g><g id="SvgjsG1744" transform="translate(637,167)"><path id="SvgjsPath1745" d="M 0 4Q 0 0 4 0L 114 0Q 118 0 118 4L 118 30Q 118 34 114 34L 4 34Q 0 34 0 30Z" stroke="#323232" stroke-width="2" fill-opacity="1" fill="#ffffff"></path><g id="SvgjsG1746"><text id="SvgjsText1747" font-family="微软雅黑" text-anchor="middle" font-size="15px" width="30" fill="#323232" font-weight="400" align="middle" anchor="middle" family="微软雅黑" size="15px" weight="400" font-style="" y="5.25" transform="rotate(0)"><tspan id="SvgjsTspan1748" dy="18" x="59"><tspan id="SvgjsTspan1749" style="text-decoration:;">精炼</tspan></tspan></text></g></g><g id="SvgjsG1750" transform="translate(201.5,165)"><path id="SvgjsPath1751" d="M 0 4Q 0 0 4 0L 114 0Q 118 0 118 4L 118 34Q 118 38 114 38L 4 38Q 0 38 0 34Z" stroke="#323232" stroke-width="2" fill-opacity="1" fill="#ffffff"></path><g id="SvgjsG1752"><text id="SvgjsText1753" font-family="微软雅黑" text-anchor="middle" font-size="15px" width="60" fill="#323232" font-weight="400" align="middle" anchor="middle" family="微软雅黑" size="15px" weight="400" font-style="" y="7.25" transform="rotate(0)"><tspan id="SvgjsTspan1754" dy="18" x="59"><tspan id="SvgjsTspan1755" style="text-decoration:;">检索文章</tspan></tspan></text></g></g><g id="SvgjsG1756"><path id="SvgjsPath1757" d="M128 184L164.75 184L164.75 184L201.5 184" stroke="#323232" stroke-width="2" fill="none" marker-end="url(#SvgjsMarker1758)"></path></g><g id="SvgjsG1760"><path id="SvgjsPath1761" d="M637 72L592 72L592 368" stroke="#323232" stroke-width="2" fill="none" marker-start="url(#SvgjsMarker1762)"></path></g><g id="SvgjsG1764"><path id="SvgjsPath1765" d="M316 72L354 72L354 72L392 72" stroke="#323232" stroke-width="2" fill="none" marker-end="url(#SvgjsMarker1766)"></path><rect id="SvgjsRect1768" width="15" height="19" x="336" y="62.5" fill="#ffffff"></rect><text id="SvgjsText1769" font-family="微软雅黑" text-anchor="middle" font-size="15px" width="15" fill="#323232" font-weight="400" align="top" anchor="middle" family="微软雅黑" size="15px" weight="400" font-style="" y="60.25" transform="rotate(0)"><tspan id="SvgjsTspan1770" dy="18" x="343.5"><tspan id="SvgjsTspan1771" style="text-decoration:;">是</tspan></tspan></text></g><g id="SvgjsG1772"><path id="SvgjsPath1773" d="M205 72L141 72L141 72L77 72" stroke="#ff3333" stroke-width="2" fill="none"></path><rect id="SvgjsRect1774" width="15" height="19" x="133.5" y="62.5" fill="#ffffff"></rect><text id="SvgjsText1775" font-family="微软雅黑" text-anchor="middle" font-size="15px" width="15" fill="#323232" font-weight="400" align="top" anchor="middle" family="微软雅黑" size="15px" weight="400" font-style="" y="60.25" transform="rotate(0)"><tspan id="SvgjsTspan1776" dy="18" x="141"><tspan id="SvgjsTspan1777" style="text-decoration:;">否</tspan></tspan></text></g><g id="SvgjsG1778"><path id="SvgjsPath1779" d="M260.5 165L260.5 127L260.5 127L260.5 89" stroke="#323232" stroke-width="2" fill="none" marker-end="url(#SvgjsMarker1780)"></path></g><g id="SvgjsG1782"><path id="SvgjsPath1783" d="M447.5 89L447.5 128L447.5 128L447.5 167" stroke="#323232" stroke-width="2" fill="none" marker-end="url(#SvgjsMarker1784)"></path><rect id="SvgjsRect1786" width="20" height="19" x="437" y="110.5" fill="#ffffff"></rect><text id="SvgjsText1787" font-family="微软雅黑" text-anchor="middle" font-size="15px" width="20" fill="#323232" font-weight="400" align="top" anchor="middle" family="微软雅黑" size="15px" weight="400" font-style="" y="108.25" transform="rotate(0)"><tspan id="SvgjsTspan1788" dy="18" x="447"><tspan id="SvgjsTspan1789" style="text-decoration:;">&gt;0</tspan></tspan></text></g><g id="SvgjsG1790" transform="translate(815,55)"><path id="SvgjsPath1791" d="M 0 17L 55.5 0L 111 17L 55.5 34L 0 17Z" stroke="#323232" stroke-width="2" fill-opacity="1" fill="#ffff33"></path><g id="SvgjsG1792"><text id="SvgjsText1793" font-family="微软雅黑" text-anchor="middle" font-size="15px" width="30" fill="#323232" font-weight="400" align="middle" anchor="middle" family="微软雅黑" size="15px" weight="400" font-style="" y="5.25" transform="rotate(0)"><tspan id="SvgjsTspan1794" dy="18" x="55.5"><tspan id="SvgjsTspan1795" style="text-decoration:;">成功</tspan></tspan></text></g></g><g id="SvgjsG1796"><path id="SvgjsPath1797" d="M755 72L785 72L785 72L815 72" stroke="#323232" stroke-width="2" fill="none" marker-end="url(#SvgjsMarker1798)"></path></g><g id="SvgjsG1800" transform="translate(815,353)"><path id="SvgjsPath1801" d="M 0 17L 55.5 0L 111 17L 55.5 34L 0 17Z" stroke="#323232" stroke-width="2" fill-opacity="1" fill="#ffff33"></path><g id="SvgjsG1802"><text id="SvgjsText1803" font-family="微软雅黑" text-anchor="middle" font-size="15px" width="30" fill="#323232" font-weight="400" align="middle" anchor="middle" family="微软雅黑" size="15px" weight="400" font-style="" y="5.25" transform="rotate(0)"><tspan id="SvgjsTspan1804" dy="18" x="55.5"><tspan id="SvgjsTspan1805" style="text-decoration:;">成功</tspan></tspan></text></g></g><g id="SvgjsG1806"><path id="SvgjsPath1807" d="M755 370L785 370L785 370L815 370" stroke="#323232" stroke-width="2" fill="none" marker-end="url(#SvgjsMarker1808)"></path></g><g id="SvgjsG1810"><path id="SvgjsPath1811" d="M755 184L832.25 184L832.25 184L909.5 184" stroke="#323232" stroke-width="2" fill="none" marker-end="url(#SvgjsMarker1812)"></path></g><g id="SvgjsG1814" transform="translate(909.5,167)"><path id="SvgjsPath1815" d="M 0 4Q 0 0 4 0L 114 0Q 118 0 118 4L 118 30Q 118 34 114 34L 4 34Q 0 34 0 30Z" stroke="#323232" stroke-width="2" fill-opacity="1" fill="#ff0000"></path><g id="SvgjsG1816"><text id="SvgjsText1817" font-family="微软雅黑" text-anchor="middle" font-size="15px" width="30" fill="#323232" font-weight="400" align="middle" anchor="middle" family="微软雅黑" size="15px" weight="400" font-style="" y="5.25" transform="rotate(0)"><tspan id="SvgjsTspan1818" dy="18" x="59"><tspan id="SvgjsTspan1819" style="text-decoration:;">结束</tspan></tspan></text></g></g><g id="SvgjsG1820"><path id="SvgjsPath1821" d="M76.5 201L76.5 305.5L76.5 305.5L76.5 410" stroke="#ff0000" stroke-width="2" fill="none"></path></g><g id="SvgjsG1822"><path id="SvgjsPath1823" d="M926 72L968.5 72L968.5 167" stroke="#323232" stroke-width="2" fill="none" marker-end="url(#SvgjsMarker1824)"></path><rect id="SvgjsRect1826" width="15" height="19" x="961" y="113" fill="#ffffff"></rect><text id="SvgjsText1827" font-family="微软雅黑" text-anchor="middle" font-size="15px" width="15" fill="#323232" font-weight="400" align="top" anchor="middle" family="微软雅黑" size="15px" weight="400" font-style="" y="110.75" transform="rotate(0)"><tspan id="SvgjsTspan1828" dy="18" x="968.5"><tspan id="SvgjsTspan1829" style="text-decoration:;">是</tspan></tspan></text></g><g id="SvgjsG1830"><path id="SvgjsPath1831" d="M926 370L968.5 370L968.5 201" stroke="#323232" stroke-width="2" fill="none"></path><rect id="SvgjsRect1832" width="15" height="19" x="960.5" y="300.5" fill="#ffffff"></rect><text id="SvgjsText1833" font-family="微软雅黑" text-anchor="middle" font-size="15px" width="15" fill="#323232" font-weight="400" align="top" anchor="middle" family="微软雅黑" size="15px" weight="400" font-style="" y="298.25" transform="rotate(0)"><tspan id="SvgjsTspan1834" dy="18" x="968"><tspan id="SvgjsTspan1835" style="text-decoration:;">是</tspan></tspan></text></g><g id="SvgjsG1836"><path id="SvgjsPath1837" d="M870.5 89L870.5 167.5L870.5 167.5L870.5 246" stroke="#323232" stroke-width="2" fill="none" marker-end="url(#SvgjsMarker1838)"></path></g><g id="SvgjsG1840"><path id="SvgjsPath1841" d="M870.5 353L870.5 315.5L870.5 315.5L870.5 278" stroke="#323232" stroke-width="2" fill="none" marker-end="url(#SvgjsMarker1842)"></path></g><g id="SvgjsG1844" transform="translate(808,249)"><path id="SvgjsPath1845" d="M 0 4Q 0 0 4 0L 114 0Q 118 0 118 4L 118 30Q 118 34 114 34L 4 34Q 0 34 0 30Z" stroke="#323232" stroke-width="2" fill-opacity="1" fill="#ff8000"></path><g id="SvgjsG1846"><text id="SvgjsText1847" font-family="微软雅黑" text-anchor="middle" font-size="15px" width="90" fill="#323232" font-weight="400" align="middle" anchor="middle" family="微软雅黑" size="15px" weight="400" font-style="" y="5.25" transform="rotate(0)"><tspan id="SvgjsTspan1848" dy="18" x="59"><tspan id="SvgjsTspan1849" style="text-decoration:;">错误信息处理</tspan></tspan></text></g></g><g id="SvgjsG1850"><path id="SvgjsPath1851" d="M926 266L968.5 266L968.5 201" stroke="#323232" stroke-width="2" fill="none" marker-end="url(#SvgjsMarker1852)"></path></g><g id="SvgjsG1854"><path id="SvgjsPath1855" d="M637 184L615 184L615 184L593 184" stroke="#323232" stroke-width="2" fill="none" marker-start="url(#SvgjsMarker1856)"></path></g><g id="SvgjsG1858"><path id="SvgjsPath1859" d="M1027.5 184L1057.5 184L1057.5 410L76 410" stroke="#ff0000" stroke-width="2" fill="none" marker-start="url(#SvgjsMarker1860)"></path><rect id="SvgjsRect1862" width="39" height="16" x="546.5" y="402" fill="#ffffff"></rect><text id="SvgjsText1863" font-family="微软雅黑" text-anchor="middle" font-size="13px" width="39" fill="#323232" font-weight="400" align="top" anchor="middle" family="微软雅黑" size="13px" weight="400" font-style="" y="400.05" transform="rotate(0)"><tspan id="SvgjsTspan1864" dy="16" x="566"><tspan id="SvgjsTspan1865" style="text-decoration:;">下一个</tspan></tspan></text></g></svg>